name analog
datacolumns 19
datarows 52
range 0.0 0.025500000000000002
endheader
time	ground_force_vx	ground_force_vy	ground_force_vz	ground_force_px	ground_force_py	ground_force_pz	l_ground_force_vx	l_ground_force_vy	l_ground_force_vz	l_ground_force_px	l_ground_force_py	l_ground_force_pz	ground_torque_x	ground_torque_y	ground_torque_z	l_ground_torque_x	l_ground_torque_y	l_ground_torque_z
0.0	-0.0	-0.0	-0.0	-0.0	-0.0	-0.0	4.673902988433838	-11.421144485473633	-766.1054077148438	-0.0	-0.0	-0.0	-0.0	-0.0	-0.0	212806.71875	9720.630859375	1264.8837890625
0.0005	-0.0	-0.0	-0.0	-0.0	-0.0	-0.0	5.1425862312316895	-11.652822494506836	-765.5198974609375	-0.0	-0.0	-0.0	-0.0	-0.0	-0.0	212236.25	9581.8828125	1193.9434814453125
0.001	-0.0	-0.0	-0.0	-0.0	-0.0	-0.0	5.82951545715332	-11.884170532226562	-763.7145385742188	-0.0	-0.0	-0.0	-0.0	-0.0	-0.0	211530.921875	9591.2607421875	1292.3526611328125
0.0015	-0.0	-0.0	-0.0	-0.0	-0.0	-0.0	6.039334297180176	-12.017534255981444	-761.811767578125	-0.0	-0.0	-0.0	-0.0	-0.0	-0.0	210705.671875	9633.767578125	1108.886474609375
0.002	-0.0	-0.0	-0.0	-0.0	-0.0	-0.0	5.780113220214844	-12.183775901794434	-760.2316284179688	-0.0	-0.0	-0.0	-0.0	-0.0	-0.0	209849.4375	9740.6806640625	890.9373168945312
0.0025	-0.0	-0.0	-0.0	-0.0	-0.0	-0.0	5.493261337280273	-11.37233543395996	-757.1449584960938	-0.0	-0.0	-0.0	-0.0	-0.0	-0.0	209599.90625	10464.9697265625	643.0969848632812
0.003	-0.0	-0.0	-0.0	-0.0	-0.0	-0.0	4.9775261878967285	-10.201200485229492	-756.611572265625	-0.0	-0.0	-0.0	-0.0	-0.0	-0.0	209269.59375	10929.2216796875	440.4888305664063
0.0035	-0.0	-0.0	-0.0	-0.0	-0.0	-0.0	4.685449600219727	-8.723594665527344	-755.897705078125	-0.0	-0.0	-0.0	-0.0	-0.0	-0.0	209031.84375	11343.8017578125	305.8455810546875
0.004	-0.0	-0.0	-0.0	-0.0	-0.0	-0.0	4.346828460693359	-7.948951721191406	-754.9769897460938	-0.0	-0.0	-0.0	-0.0	-0.0	-0.0	208600.421875	11540.404296875	126.50364685058594
0.0045000000000000005	-0.0	-0.0	-0.0	-0.0	-0.0	-0.0	4.400164604187012	-6.651366710662842	-754.9904174804688	-0.0	-0.0	-0.0	-0.0	-0.0	-0.0	208698.3125	12027.76171875	-21.11996841430664
0.005	-0.0	-0.0	-0.0	-0.0	-0.0	-0.0	4.284706592559815	-5.622528076171875	-753.7000122070312	-0.0	-0.0	-0.0	-0.0	-0.0	-0.0	208588.296875	12390.90625	-93.92701721191406
0.0055	-0.0	-0.0	-0.0	-0.0	-0.0	-0.0	4.063027381896973	-4.596120834350586	-753.2083129882812	-0.0	-0.0	-0.0	-0.0	-0.0	-0.0	208421.5625	12769.3466796875	-134.7311248779297
0.006	-0.0	-0.0	-0.0	-0.0	-0.0	-0.0	3.697355031967163	-4.091170310974121	-751.2620849609375	-0.0	-0.0	-0.0	-0.0	-0.0	-0.0	208054.375	13081.0341796875	-234.64622497558597
0.006500000000000001	-0.0	-0.0	-0.0	-0.0	-0.0	-0.0	4.087055206298828	-3.662263870239258	-750.567138671875	-0.0	-0.0	-0.0	-0.0	-0.0	-0.0	207937.625	13320.9560546875	-226.31956481933597
0.007	-0.0	-0.0	-0.0	-0.0	-0.0	-0.0	3.974782466888428	-2.8661084175109863	-749.1046752929688	-0.0	-0.0	-0.0	-0.0	-0.0	-0.0	207623.078125	13859.15625	-314.16046142578125
0.0075	-0.0	-0.0	-0.0	-0.0	-0.0	-0.0	3.9352521896362314	-2.8007631301879883	-747.7083740234375	-0.0	-0.0	-0.0	-0.0	-0.0	-0.0	207248.53125	14253.39453125	-462.48834228515625
0.008	-0.0	-0.0	-0.0	-0.0	-0.0	-0.0	3.723228454589844	-2.854863405227661	-746.2603149414062	-0.0	-0.0	-0.0	-0.0	-0.0	-0.0	206638.8125	14786.228515625	-472.7018127441406
0.0085	-0.0	-0.0	-0.0	-0.0	-0.0	-0.0	3.506460666656494	-3.2393012046813965	-744.6605224609375	-0.0	-0.0	-0.0	-0.0	-0.0	-0.0	206280.328125	15246.7744140625	-541.9362182617188
0.009000000000000001	-0.0	-0.0	-0.0	-0.0	-0.0	-0.0	3.1493287086486816	-3.104556083679199	-742.8075561523438	-0.0	-0.0	-0.0	-0.0	-0.0	-0.0	205838.296875	15527.623046875	-680.06201171875
0.0095	-0.0	-0.0	-0.0	-0.0	-0.0	-0.0	2.817075252532959	-3.059447765350342	-741.1575927734375	-0.0	-0.0	-0.0	-0.0	-0.0	-0.0	205567.046875	15882.7529296875	-834.3677978515625
0.01	-0.0	-0.0	-0.0	-0.0	-0.0	-0.0	2.6052634716033936	-3.0029373168945312	-741.1349487304688	-0.0	-0.0	-0.0	-0.0	-0.0	-0.0	205280.296875	16175.353515625	-908.8131103515624
0.0105	-0.0	-0.0	-0.0	-0.0	-0.0	-0.0	2.372965812683105	-3.017831802368164	-740.4664306640625	-0.0	-0.0	-0.0	-0.0	-0.0	-0.0	205126.453125	16390.498046875	-982.5803833007812
0.011	-0.0	-0.0	-0.0	-0.0	-0.0	-0.0	2.335651397705078	-2.679279327392578	-740.4908447265625	-0.0	-0.0	-0.0	-0.0	-0.0	-0.0	205139.625	16517.744140625	-997.3616333007812
0.0115	-0.0	-0.0	-0.0	-0.0	-0.0	-0.0	2.409395456314087	-2.207491159439087	-740.69140625	-0.0	-0.0	-0.0	-0.0	-0.0	-0.0	205247.046875	16507.55859375	-1034.9569091796875
0.012	-0.0	-0.0	-0.0	-0.0	-0.0	-0.0	2.426650047302246	-2.119720458984375	-741.0056762695312	-0.0	-0.0	-0.0	-0.0	-0.0	-0.0	205473.71875	17017.830078125	-1026.913330078125
0.0125	-0.0	-0.0	-0.0	-0.0	-0.0	-0.0	2.468512773513794	-1.906912326812744	-740.7513427734375	-0.0	-0.0	-0.0	-0.0	-0.0	-0.0	205511.9375	16938.39453125	-1041.497314453125
0.013000000000000001	-0.0	-0.0	-0.0	-0.0	-0.0	-0.0	2.52872633934021	-1.5303637981414795	-743.5167236328125	-0.0	-0.0	-0.0	-0.0	-0.0	-0.0	205695.40625	17004.4296875	-1036.539306640625
0.0135	-0.0	-0.0	-0.0	-0.0	-0.0	-0.0	2.520900249481201	-1.1997737884521484	-744.4490966796875	-0.0	-0.0	-0.0	-0.0	-0.0	-0.0	205897.671875	17139.703125	-1053.9525146484375
0.014	-0.0	-0.0	-0.0	-0.0	-0.0	-0.0	2.7798469066619877	-0.7952571511268616	-744.7418823242188	-0.0	-0.0	-0.0	-0.0	-0.0	-0.0	206371.015625	17271.236328125	-1036.3447265625
0.0145	-0.0	-0.0	-0.0	-0.0	-0.0	-0.0	2.8756909370422363	-0.7800455689430237	-746.6903076171875	-0.0	-0.0	-0.0	-0.0	-0.0	-0.0	206817.25	17432.1640625	-925.0890502929688
0.015	-0.0	-0.0	-0.0	-0.0	-0.0	-0.0	2.7647600173950195	-1.0746145248413086	-749.2214965820312	-0.0	-0.0	-0.0	-0.0	-0.0	-0.0	207226.03125	17523.390625	-942.6256713867188
0.0155	-0.0	-0.0	-0.0	-0.0	-0.0	-0.0	2.764927387237549	-1.1482219696044922	-748.8724975585938	-0.0	-0.0	-0.0	-0.0	-0.0	-0.0	207422.21875	17649.33984375	-856.1087036132812
0.016	-0.0	-0.0	-0.0	-0.0	-0.0	-0.0	3.016460418701172	-1.70735764503479	-750.5580444335938	-0.0	-0.0	-0.0	-0.0	-0.0	-0.0	207701.71875	17770.58203125	-720.0478515625
0.0165	-0.0	-0.0	-0.0	-0.0	-0.0	-0.0	2.824127674102783	-2.024251699447632	-751.2289428710938	-0.0	-0.0	-0.0	-0.0	-0.0	-0.0	207868.796875	18099.328125	-750.1258544921875
0.017	-0.0	-0.0	-0.0	-0.0	-0.0	-0.0	2.6173102855682373	-2.0907130241394043	-752.2445068359375	-0.0	-0.0	-0.0	-0.0	-0.0	-0.0	207845.375	18204.22265625	-834.0195922851562
0.0175	-0.0	-0.0	-0.0	-0.0	-0.0	-0.0	2.454046726226806	-2.1349728107452397	-752.128173828125	-0.0	-0.0	-0.0	-0.0	-0.0	-0.0	207837.90625	18558.978515625	-822.2540893554688
0.018000000000000002	-0.0	-0.0	-0.0	-0.0	-0.0	-0.0	1.8918228149414065	-1.881511926651001	-752.5354614257812	-0.0	-0.0	-0.0	-0.0	-0.0	-0.0	208349.203125	18870.98046875	-879.0529174804688
0.0185	-0.0	-0.0	-0.0	-0.0	-0.0	-0.0	1.8776482343673704	-1.787707805633545	-751.671630859375	-0.0	-0.0	-0.0	-0.0	-0.0	-0.0	208333.71875	19017.1484375	-975.8095703125
0.019	-0.0	-0.0	-0.0	-0.0	-0.0	-0.0	1.849289894104004	-1.546294093132019	-751.965087890625	-0.0	-0.0	-0.0	-0.0	-0.0	-0.0	208399.671875	19276.6328125	-928.9468994140624
0.0195	-0.0	-0.0	-0.0	-0.0	-0.0	-0.0	1.687055587768555	-0.8157819509506226	-752.8627319335938	-0.0	-0.0	-0.0	-0.0	-0.0	-0.0	208833.078125	19559.80859375	-963.4575805664062
0.02	-0.0	-0.0	-0.0	-0.0	-0.0	-0.0	1.921511173248291	0.0283338129520416	-753.3506469726562	-0.0	-0.0	-0.0	-0.0	-0.0	-0.0	209258.046875	19919.212890625	-946.7603149414062
0.0205	-0.0	-0.0	-0.0	-0.0	-0.0	-0.0	1.8402177095413208	0.5073539614677429	-754.9866943359375	-0.0	-0.0	-0.0	-0.0	-0.0	-0.0	209650.890625	20183.7734375	-962.965576171875
0.021	-0.0	-0.0	-0.0	-0.0	-0.0	-0.0	1.9182562828063965	1.352912187576294	-756.3258056640625	-0.0	-0.0	-0.0	-0.0	-0.0	-0.0	210132.75	20164.73046875	-958.0057373046876
0.021500000000000002	-0.0	-0.0	-0.0	-0.0	-0.0	-0.0	1.7573950290679932	2.266181707382202	-757.576171875	-0.0	-0.0	-0.0	-0.0	-0.0	-0.0	210642.1875	20552.666015625	-1069.8280029296875
0.022	-0.0	-0.0	-0.0	-0.0	-0.0	-0.0	1.65756356716156	2.975118398666382	-758.2570190429688	-0.0	-0.0	-0.0	-0.0	-0.0	-0.0	211316.734375	21247.783203125	-937.971435546875
0.0225	-0.0	-0.0	-0.0	-0.0	-0.0	-0.0	1.1912604570388794	3.7946743965148926	-760.53955078125	-0.0	-0.0	-0.0	-0.0	-0.0	-0.0	211692.890625	21538.005859375	-1024.5941162109375
0.023	-0.0	-0.0	-0.0	-0.0	-0.0	-0.0	0.6486672163009644	4.374711990356445	-761.2050170898438	-0.0	-0.0	-0.0	-0.0	-0.0	-0.0	212114.484375	22121.9765625	-988.0037231445312
0.0235	-0.0	-0.0	-0.0	-0.0	-0.0	-0.0	-0.2476894259452819	4.679495334625244	-761.6082763671875	-0.0	-0.0	-0.0	-0.0	-0.0	-0.0	212269.65625	22537.9296875	-1151.2730712890625
0.024	-0.0	-0.0	-0.0	-0.0	-0.0	-0.0	-0.6759865880012512	4.830307960510254	-762.2223510742188	-0.0	-0.0	-0.0	-0.0	-0.0	-0.0	212344.84375	23248.5703125	-1362.7640380859375
0.0245	-0.0	-0.0	-0.0	-0.0	-0.0	-0.0	-1.51268470287323	4.902671813964844	-763.564208984375	-0.0	-0.0	-0.0	-0.0	-0.0	-0.0	212542.53125	23750.517578125	-1469.3822021484375
0.025	-0.0	-0.0	-0.0	-0.0	-0.0	-0.0	-2.1137990951538086	5.166818618774414	-763.6949462890625	-0.0	-0.0	-0.0	-0.0	-0.0	-0.0	212512.78125	24577.607421875	-1591.1759033203125
0.025500000000000002	-0.0	-0.0	-0.0	-0.0	-0.0	-0.0	-2.8840036392211914	4.898128509521484	-764.0274658203125	-0.0	-0.0	-0.0	-0.0	-0.0	-0.0	212579.328125	25072.845703125	-1713.29052734375
